PathFileType	4	(X/Y/Z)	Kaydara	
DataRate	CameraRate	NumFrames	NumMarkers	Units	OrigDataRate	OrigDataStartFrame	OrigNumFrames	
60.00	60.00	4	74	mm	60.00	666	227	
Frame#	Time	N_lasi			N_rasi			N_rpsi			N_lpsi			N_fneck			N_bneck			N_fhead			N_rhead			N_lhead			N_rshld			N_relbtop			N_relbext			N_relblow			N_rwrext			N_rwrtop			N_rwrlow			N_lshld			N_lelbext			N_lelbtop			N_lwrext			N_lwrtop			N_lwrlow			N_rtopleg			N_ltopleg			N_rkneefr			N_rkneebk			N_rkneeis			N_lkneefr			N_lknssbk			N_lkneeis			N_rankfr			N_rankis			N_rankbk			N_lankfr			N_lankbk			N_lankis			Z_lasi			Z_rasi			Z_rpsi			Z_lpsi			Z_fneck			Z_bneck			Z_fhead			Z_rhead			Z_lhead			Z_rshld			Z_relbtop			Z_relbext			Z_relblow			Z_rwrext			Z_rwrtop			Z_rwrlow			Z_lshld			Z_lelbext			Z_lelblow			Z_lelbtop			Z_lwrext			Z_lwrtop			Z_lwrlow			Z_rtopleg			Z_ltopleg			Z_rkneefr			Z_rkneebk			Z_rkneeis			Z_lkneefr			Z_lknssbk			Z_lkneeis			Z_rankfr			Z_rankis			Z_lankfr			Z_lankbk			Z_lankis			N_lelblow			Z_rankbk			
		X1	Y1	Z1	X2	Y2	Z2	X3	Y3	Z3	X4	Y4	Z4	X5	Y5	Z5	X6	Y6	Z6	X7	Y7	Z7	X8	Y8	Z8	X9	Y9	Z9	X10	Y10	Z10	X11	Y11	Z11	X12	Y12	Z12	X13	Y13	Z13	X14	Y14	Z14	X15	Y15	Z15	X16	Y16	Z16	X17	Y17	Z17	X18	Y18	Z18	X19	Y19	Z19	X20	Y20	Z20	X21	Y21	Z21	X22	Y22	Z22	X23	Y23	Z23	X24	Y24	Z24	X25	Y25	Z25	X26	Y26	Z26	X27	Y27	Z27	X28	Y28	Z28	X29	Y29	Z29	X30	Y30	Z30	X31	Y31	Z31	X32	Y32	Z32	X33	Y33	Z33	X34	Y34	Z34	X35	Y35	Z35	X36	Y36	Z36	X37	Y37	Z37	X38	Y38	Z38	X39	Y39	Z39	X40	Y40	Z40	X41	Y41	Z41	X42	Y42	Z42	X43	Y43	Z43	X44	Y44	Z44	X45	Y45	Z45	X46	Y46	Z46	X47	Y47	Z47	X48	Y48	Z48	X49	Y49	Z49	X50	Y50	Z50	X51	Y51	Z51	X52	Y52	Z52	X53	Y53	Z53	X54	Y54	Z54	X55	Y55	Z55	X56	Y56	Z56	X57	Y57	Z57	X58	Y58	Z58	X59	Y59	Z59	X60	Y60	Z60	X61	Y61	Z61	X62	Y62	Z62	X63	Y63	Z63	X64	Y64	Z64	X65	Y65	Z65	X66	Y66	Z66	X67	Y67	Z67	X68	Y68	Z68	X69	Y69	Z69	X70	Y70	Z70	X71	Y71	Z71	X72	Y72	Z72	X73	Y73	Z73	X74	Y74	Z74	

142	11.083	-1520.06531	1053.95599	-587.84088	-1721.18195	1044.01894	-687.21619	-1596.66641	1110.63629	-898.38577	-1399.80423	1105.01617	-761.08154	-1654.18701	1520.60715	-644.58702	-1598.97125	1587.87506	-765.29129	-1665.35919	1747.67212	-565.24303	-1715.93979	1715.24292	-733.18512	-1562.65808	1730.07767	-701.71730	-1786.63818	1466.61301	-850.27122	-1775.58777	1174.98398	-967.46819	-1699.63074	1165.49332	-923.72147	-1786.64291	1169.51080	-892.53517	-1806.66443	918.41698	-928.60886	-1837.12463	925.87959	-888.45329	-1806.63269	925.49782	-853.30338	-1423.92288	1510.64590	-600.35324	-1408.19809	1182.07748	-610.02754	-1321.75430	1236.93794	-560.32425	-1260.71358	988.07365	-532.18521	-1281.94580	987.96150	-483.32012	-1326.81259	971.29204	-498.99506	-1721.64520	917.64343	-875.84747	-1396.77170	919.49867	-620.74028	-1710.88654	477.34730	-771.13449	-1659.88464	519.27906	-872.26456	-1593.97720	489.58561	-780.74356	-1572.27005	485.49919	-537.94910	-1481.58676	536.60378	-575.37037	-1585.45288	525.88749	-644.47876	-1668.17230	177.98769	-833.01132	-1594.29550	184.52839	-833.74672	-1646.58737	179.72013	-895.48271	-1405.10376	251.51384	-718.28796	-1428.27072	295.75006	-796.65176	-1469.51935	256.06115	-748.61534	224.50418	964.32724	45.97054	463.36010	975.82649	35.00025	449.05643	1024.55605	234.16485	256.66780	1016.00571	235.26939	310.69622	1412.21741	2.09722	328.37032	1492.54349	92.56194	304.96420	1529.12933	-138.42834	404.71462	1604.00452	9.30995	275.21452	1602.33261	30.62063	560.32204	1360.00290	101.01368	617.95628	1071.02112	174.07057	551.12759	1057.35390	153.28573	623.39077	1092.72888	92.36323	643.63472	829.30168	69.51832	654.54880	840.85678	27.75986	610.83927	851.65260	15.03012	126.61068	1382.46841	95.21291	144.86659	1055.72357	142.09989	69.10183	1080.08682	96.27542	76.99460	1058.60748	174.50859	43.14587	849.20280	96.02329	43.88253	858.43391	54.89265	89.06158	854.78973	50.94378	536.66462	868.32344	115.53698	183.49791	888.89992	137.46901	499.83925	427.07428	-57.60775	552.89566	437.15408	14.32683	437.72064	416.13121	19.21216	261.90102	394.75746	164.87514	199.15510	433.91060	215.71373	316.82642	444.28505	246.44646	528.48946	170.38942	-91.08266	483.08113	145.46494	-28.58895	291.36600	187.53160	347.18094	213.11956	189.06340	365.21484	258.25182	213.47101	408.76938	-1391.44150	1202.07184	-578.26878	556.30352	144.13341	-24.19316 
143	11.100	-1528.75015	1056.04515	-579.10927	-1731.86111	1044.81644	-674.88937	-1610.69489	1111.84753	-888.33786	-1411.67694	1107.31339	-754.50577	-1663.07404	1521.88370	-632.24663	-1610.91064	1589.82880	-753.80699	-1671.64291	1747.66083	-550.50911	-1725.52048	1718.19687	-718.11508	-1571.26541	1731.89636	-689.67262	-1800.69366	1469.64447	-835.03265	-1794.21875	1178.52196	-954.28207	-1717.20673	1168.26172	-912.48703	-1802.96875	1172.58987	-880.33676	-1825.93567	922.41394	-908.91632	-1855.60028	931.07071	-868.53943	-1824.21219	931.29646	-834.42917	-1431.93466	1513.09952	-593.60405	-1406.40366	1187.55470	-605.41828	-1319.98749	1243.28781	-558.27381	-1251.20438	996.28662	-531.33842	-1267.47963	996.96098	-480.38864	-1313.19214	978.95065	-491.67210	-1732.77664	917.75887	-865.37018	-1406.61133	923.22403	-612.02271	-1712.56699	477.16591	-769.14978	-1662.64175	520.43518	-870.28008	-1595.67078	490.86994	-779.20776	-1586.31226	492.34993	-519.96117	-1494.18610	538.26759	-560.56953	-1598.16986	529.29512	-628.15662	-1668.80112	178.62711	-831.84975	-1595.08911	185.55422	-832.42752	-1647.18002	180.54546	-894.34410	-1435.77988	240.69422	-689.41147	-1458.29666	281.46734	-770.25009	-1497.93411	244.99500	-722.80670	232.59315	965.17334	29.55984	470.30254	975.99197	17.33232	458.19588	1024.87343	216.46500	264.00158	1015.27023	220.24021	319.34788	1413.29208	-11.32027	337.87445	1493.52936	78.65557	311.63818	1529.71161	-152.06373	413.16589	1605.25406	-5.95286	283.78353	1603.25363	16.99463	570.15938	1358.86993	83.60846	626.15040	1069.37683	155.82321	558.71643	1056.07628	134.72943	631.11366	1090.71693	74.17274	649.12460	826.60439	53.29157	659.77425	837.93297	11.40209	616.11950	848.93295	-1.20150	135.82899	1383.42850	84.75553	153.14253	1057.15332	132.84739	76.94486	1081.30249	87.00795	85.72565	1060.86487	165.36682	47.65503	850.81764	90.67998	48.32244	859.33197	49.23593	93.48541	854.87556	45.01535	543.80531	869.05624	97.30645	190.43484	888.34419	120.44737	501.68179	426.40972	-73.41280	556.54011	437.64854	-2.99164	442.40059	417.89894	5.24286	263.16086	394.05693	144.65256	200.74759	435.04337	194.64533	319.56375	444.48196	225.51174	525.52002	167.99360	-98.48195	482.70256	146.21634	-32.54936	292.44925	193.45428	333.98888	214.20589	195.79987	354.13704	259.80738	221.76233	396.08383	-1389.61975	1206.67618	-571.10069	555.60097	143.79568	-33.23250 
144	11.117	-1537.45438	1057.18887	-569.96185	-1741.67511	1044.34677	-663.49190	-1624.51477	1112.53860	-878.19672	-1423.71582	1109.15092	-747.25128	-1671.97769	1522.52243	-619.63604	-1622.37061	1590.96542	-741.98769	-1677.60147	1747.11700	-535.83740	-1735.07568	1720.36148	-702.67494	-1579.92386	1732.64175	-677.09801	-1814.05670	1471.74591	-819.83246	-1812.41699	1181.31622	-940.67719	-1735.11429	1170.88554	-899.30275	-1820.39017	1176.12381	-864.65729	-1844.71588	925.89394	-889.21616	-1873.59375	935.72227	-848.63136	-1842.30423	936.88179	-813.95325	-1440.05569	1514.81949	-586.30539	-1404.76471	1192.44972	-600.54291	-1318.52554	1249.20891	-556.42651	-1242.82875	1004.15718	-530.11433	-1254.84528	1006.14685	-477.97794	-1300.52795	986.83868	-484.78821	-1743.72711	917.58438	-854.99901	-1416.20804	926.06033	-603.29098	-1714.63196	476.98166	-767.00386	-1665.73257	521.61308	-868.11951	-1597.83813	492.03487	-777.34642	-1599.44962	498.02864	-503.50655	-1506.53397	538.76305	-546.70269	-1610.64407	530.69378	-612.51854	-1669.55338	179.22192	-830.63156	-1595.88577	186.54856	-831.38123	-1648.03284	181.40865	-893.20267	-1466.71860	229.37536	-659.59518	-1487.66769	266.46614	-743.13507	-1526.22223	231.33329	-697.86781	240.44060	967.09152	14.29190	477.53757	977.36084	0.93713	465.12508	1027.24396	200.41473	270.17187	1015.93811	204.49623	328.13473	1415.21515	-25.22453	347.49966	1495.54138	64.47863	318.48810	1530.77026	-166.13995	421.43593	1606.88202	-21.54870	292.72987	1605.02670	3.04953	579.31519	1358.79715	66.67776	634.12441	1068.39844	136.79755	566.30203	1055.43137	117.20066	638.31970	1089.47708	55.25543	654.44321	824.91249	36.68728	664.82185	835.49141	-4.97456	621.12350	846.66275	-17.32981	144.89892	1385.52826	73.96330	161.70937	1059.62791	123.77280	84.92468	1083.67195	77.96925	95.13776	1064.03374	156.17840	52.81475	853.74260	85.32725	53.30647	861.39877	43.77699	98.23784	856.21292	39.24971	550.46513	871.43723	81.02328	196.47789	888.54446	104.32454	503.03612	426.80218	-89.52757	560.46196	439.89250	-20.91883	446.25076	421.29101	-9.30717	263.71525	394.19125	121.67004	200.96981	436.92829	170.64066	321.49429	445.21992	201.93924	524.17652	166.56471	-104.52425	483.88702	147.96391	-36.19783	292.58068	200.12135	319.72969	215.07153	204.11438	339.74442	261.32263	231.63969	380.24128	-1387.80334	1210.54504	-563.19725	556.24466	145.00939	-39.24121 
145	11.133	-1545.96390	1057.58255	-560.84339	-1752.04834	1043.72696	-650.75226	-1637.99332	1112.71683	-867.77893	-1433.16345	1110.82352	-741.06018	-1681.38718	1522.69180	-605.45860	-1633.54553	1591.52954	-729.79492	-1683.48679	1745.98282	-520.86330	-1744.29016	1721.76590	-687.03773	-1588.80508	1732.86469	-664.25011	-1826.84586	1473.11142	-804.52255	-1830.14053	1183.53508	-927.11731	-1751.74286	1172.39594	-887.36847	-1835.72845	1178.00629	-851.43280	-1863.05054	928.85620	-869.73755	-1891.10489	939.84016	-828.78914	-1858.57605	941.41975	-795.87143	-1447.75681	1515.95901	-578.98640	-1403.60107	1197.03888	-595.97687	-1317.59323	1254.65744	-554.57615	-1235.13893	1011.67435	-528.64872	-1243.64319	1014.71939	-475.89699	-1288.89725	994.45602	-478.67519	-1754.62372	917.17606	-844.41856	-1425.53085	927.91443	-594.82769	-1716.97662	476.55998	-764.48410	-1669.07959	522.62142	-865.39520	-1600.37949	493.02467	-775.12428	-1612.09518	502.56832	-488.40813	-1518.23074	537.89467	-533.75359	-1622.17850	530.83107	-598.69289	-1670.35751	179.74230	-829.39102	-1596.70898	187.49983	-830.41252	-1648.99612	182.28329	-892.04155	-1497.89337	217.74830	-628.19550	-1517.45911	251.22593	-714.42429	-1555.16418	217.34028	-671.56532	248.17997	969.45435	-0.17216	484.80373	979.51698	-14.46821	470.70824	1030.12764	185.68441	276.13445	1018.10432	189.01266	336.51646	1417.28210	-39.35730	356.58024	1497.54822	50.20197	325.27454	1532.22672	-179.96948	429.99249	1608.62717	-37.13926	301.27131	1607.11533	-10.78343	588.14491	1359.67102	49.68730	641.37367	1068.33488	117.69404	573.49194	1055.79140	99.64965	644.84085	1089.21196	35.92247	659.96361	824.31389	20.75788	669.88884	834.02092	-21.69241	626.02924	845.11559	-33.68061	153.66927	1388.69324	62.57168	170.67986	1063.06526	114.56540	92.95553	1087.19391	69.35802	104.94106	1068.34694	147.73857	58.96834	857.80151	80.08904	58.67797	864.70825	38.38225	103.47772	858.85262	33.24060	556.39107	873.45093	66.00407	201.92577	889.29497	89.83075	506.57246	427.20524	-105.29065	566.05255	442.82516	-38.59084	451.19942	425.19711	-24.29263	262.88290	394.50039	95.47062	201.25908	439.18560	143.12052	322.84519	446.16501	175.35791	524.84314	165.60192	-109.23668	485.59425	150.41139	-39.85779	291.91708	207.14956	302.44963	214.87284	214.12745	321.78093	262.80716	242.31270	360.10677	-1386.40839	1214.27513	-555.91557	558.19256	146.62920	-43.25893 
